<?xml version="1.0" standalone="no"?>
<!DOCTYPE svg PUBLIC "-//W3C//DTD SVG 20010904//EN"
 "http://www.w3.org/TR/2001/REC-SVG-20010904/DTD/svg10.dtd">
<svg version="1.0" xmlns="http://www.w3.org/2000/svg"
 width="512.000000pt" height="512.000000pt" viewBox="0 0 512.000000 512.000000"
 preserveAspectRatio="xMidYMid meet">
<metadata>
Created by potrace 1.14, written by Peter Selinger 2001-2017
</metadata>
<g transform="translate(0.000000,512.000000) scale(0.100000,-0.100000)"
fill="#000000" stroke="none">
<path d="M2264 5099 c-34 -10 -95 -41 -136 -68 -283 -185 -453 -567 -487
-1094 -6 -101 -10 -121 -29 -139 -20 -20 -22 -20 -46 -4 -69 45 -92 159 -106
524 -7 176 -13 246 -30 312 -40 163 -139 324 -224 364 -116 55 -221 -17 -321
-222 -61 -125 -69 -160 -68 -297 0 -100 6 -139 31 -236 38 -144 85 -265 168
-433 35 -71 63 -130 62 -131 -2 0 -43 -31 -93 -67 -247 -183 -456 -467 -530
-724 -69 -237 20 -530 187 -615 20 -10 90 -36 155 -58 151 -50 203 -79 285
-162 53 -54 77 -90 122 -181 112 -227 142 -414 133 -828 -9 -388 -43 -569
-128 -671 -22 -26 -46 -60 -54 -75 -19 -38 -19 -136 0 -202 l16 -52 312 2 312
3 7 90 c19 226 77 410 139 435 28 12 38 9 137 -38 59 -29 150 -65 202 -82 138
-44 180 -60 180 -71 0 -5 -37 -27 -82 -48 -131 -61 -194 -145 -205 -272 l-6
-59 788 0 788 0 56 42 c64 48 211 193 262 257 l34 43 54 -35 c171 -113 414
-40 508 151 23 46 29 74 31 144 4 81 1 93 -26 152 -53 114 -146 191 -255 211
-33 6 -37 10 -31 29 4 11 7 89 7 171 -1 229 -39 389 -144 599 -120 238 -266
404 -483 548 -186 123 -322 185 -736 336 -416 152 -492 191 -617 320 -169 174
-267 513 -208 720 15 52 52 127 193 392 88 165 140 355 163 597 17 184 -5 308
-68 383 -52 62 -114 73 -219 39z"/>
</g>
</svg>
